<svg width="400" height="225" viewBox="0 0 400 225" fill="none" xmlns="http://www.w3.org/2000/svg">
  <rect width="400" height="225" fill="#f8fafc"/>
  <rect x="20" y="20" width="360" height="185" rx="8" fill="#e2e8f0" stroke="#cbd5e1" stroke-width="2"/>
  
  <!-- Header -->
  <rect x="40" y="40" width="320" height="30" rx="4" fill="#3b82f6"/>
  <rect x="50" y="48" width="80" height="14" rx="2" fill="white"/>
  <rect x="310" y="48" width="40" height="14" rx="2" fill="white"/>
  
  <!-- Content blocks -->
  <rect x="40" y="85" width="150" height="12" rx="2" fill="#64748b"/>
  <rect x="40" y="105" width="200" height="8" rx="2" fill="#94a3b8"/>
  <rect x="40" y="120" width="180" height="8" rx="2" fill="#94a3b8"/>
  <rect x="40" y="135" width="160" height="8" rx="2" fill="#94a3b8"/>
  
  <rect x="210" y="85" width="150" height="12" rx="2" fill="#64748b"/>
  <rect x="210" y="105" width="140" height="8" rx="2" fill="#94a3b8"/>
  <rect x="210" y="120" width="120" height="8" rx="2" fill="#94a3b8"/>
  <rect x="210" y="135" width="100" height="8" rx="2" fill="#94a3b8"/>
  
  <!-- CMS Icon -->
  <circle cx="200" cy="160" r="20" fill="#3b82f6" opacity="0.2"/>
  <path d="M190 155h20v10h-20z" fill="#3b82f6"/>
  <path d="M192 157h16v2h-16z" fill="white"/>
  <path d="M192 160h12v2h-12z" fill="white"/>
  
  <text x="200" y="195" text-anchor="middle" fill="#64748b" font-family="system-ui" font-size="12" font-weight="500">Blog CMS</text>
</svg>